<?xml version="1.0" encoding="utf-8"?>
<!-- Generator: Adobe Illustrator 17.1.0, SVG Export Plug-In . SVG Version: 6.00 Build 0)  -->
<!DOCTYPE svg PUBLIC "-//W3C//DTD SVG 1.1//EN" "http://www.w3.org/Graphics/SVG/1.1/DTD/svg11.dtd">
<svg version="1.1" id="Layer_1" xmlns="http://www.w3.org/2000/svg" xmlns:xlink="http://www.w3.org/1999/xlink" x="0px" y="0px"
	 viewBox="0 0 730 170" enable-background="new 0 0 730 170" xml:space="preserve">
<path fill-rule="evenodd" clip-rule="evenodd" fill="#9E0032" d="M165.6,4.3C163.4,1.7,161,0,157.8,0c-3.2,0-6,1.3-8.8,3.4
	L16.2,104.1h233.4L165.6,4.3L165.6,4.3z M283.4,160.4c1,1.1,2.4,1.9,4,1.9c2.9,0,5.2-2.3,5.2-5.2c0-1.3-0.5-2.5-1.2-3.4L259.7,116
	c-2.3-2.7-5.7-4.4-9.6-4.4h-1.4c-3.8,0-7.3,1.7-9.6,4.4l-31.8,37.7c-0.8,0.9-1.2,2.1-1.2,3.4c0,2.9,2.3,5.2,5.2,5.2
	c1.6,0,3-0.7,4-1.9l31.8-37.7c0.5-0.6,1.4-1,2.2-1c0.9,0,1.7,0.4,2.2,1L283.4,160.4L283.4,160.4z M242.3,146.1c4.8,0,9.4,0,14.2,0
	c2.8,0,5.1-2.3,5.1-5.1c0-2.8-2.3-5.1-5.1-5.1c-5.2,0-9,0-14.2,0c-2.8,0-5.1,2.3-5.1,5.1C237.3,143.8,239.5,146.1,242.3,146.1
	L242.3,146.1z"/>
<path fill-rule="evenodd" clip-rule="evenodd" d="M164.3,1.4l152.5,82.3c0,0,7.7,4.2,7.7,12.3v21.6L164.3,1.4L164.3,1.4z
	 M62.5,121.7c2.8,0,5.1-2.3,5.1-5.1c0-2.8-2.3-5.1-5.1-5.1H14.2c-7.8,0-14.2,6.4-14.2,14.2v22.3c0,7.8,6.4,14.2,14.2,14.2h48.3
	c2.8,0,5.1-2.3,5.1-5.1c0-2.8-2.3-5.1-5.1-5.1H14.2c-2.2,0-4.1-1.8-4.1-4.1v-22.3c0-2.2,1.8-4.1,4.1-4.1H62.5L62.5,121.7z
	 M83.1,162.3c-7.8,0-14.2-6.4-14.2-14.2v-22.3c0-7.8,6.4-14.2,14.2-14.2h43.3c7.8,0,14.2,6.4,14.2,14.2v0.7
	c0,7.8-6.4,14.2-14.2,14.2H89.2c-2.8,0-5.1-2.3-5.1-5.1c0-2.8,2.3-5.1,5.1-5.1h37.2c2.2,0,4.1-1.8,4.1-4.1v-0.7
	c0-2.2-1.8-4.1-4.1-4.1H83.1c-2.2,0-4.1,1.8-4.1,4.1v22.3c0,2.2,1.8,4.1,4.1,4.1h52.4c2.8,0,5.1,2.3,5.1,5.1c0,2.8-2.3,5.1-5.1,5.1
	H83.1L83.1,162.3z M151.2,113.4c-1-1.1-2.4-1.9-4-1.9c-2.9,0-5.2,2.3-5.2,5.2c0,1.3,0.5,2.5,1.2,3.4l31.8,37.7
	c2.3,2.7,5.7,4.4,9.6,4.4h1.4c3.8,0,7.3-1.7,9.6-4.4l31.8-37.7c0.8-0.9,1.2-2.1,1.2-3.4c0-2.9-2.3-5.2-5.2-5.2c-1.6,0-3,0.7-4,1.9
	l-31.8,37.7c-0.5,0.6-1.4,1-2.2,1c-0.9,0-1.7-0.4-2.2-1L151.2,113.4L151.2,113.4z"/>
<path fill="#9E0032" d="M726.8,145.3c-0.6,0-0.9,0.3-1,0.8l-2.6,11.1h0l-3.2-11.2c-0.1-0.4-0.4-0.6-0.9-0.6h-2
	c-0.5,0-0.8,0.2-0.9,0.7l-3.3,11.1h0l-2.5-11.1c-0.1-0.4-0.3-0.7-1-0.7h-2.9c-0.5,0-0.7,0.1-0.7,0.5c0,0.1,0,0.2,0,0.3l4.6,15.4
	c0.1,0.5,0.5,0.8,1.1,0.8h2.4c0.6,0,0.9-0.2,1.1-0.8l2.9-10.1h0.1l2.9,10c0.2,0.6,0.5,0.9,1.1,0.9h2.4c0.6,0,0.9-0.3,1.1-0.8
	L730,146c0-0.1,0-0.2,0-0.3c0-0.2-0.1-0.4-0.5-0.4H726.8L726.8,145.3z M699.8,153.8c0,2.9-1.1,5.6-4.1,5.6c-3.1,0-4-2.8-4-5.7
	c0-2.8,1-5.5,4.1-5.5C698.9,148.2,699.8,150.9,699.8,153.8L699.8,153.8z M704.2,153.8c0-5.2-2.6-8.9-8.3-8.9c-5.5,0-8.6,3.9-8.6,8.9
	c0,5.1,2.6,9,8.3,9C701.1,162.7,704.2,158.8,704.2,153.8L704.2,153.8z M683.9,138c0-0.6-0.3-0.8-0.7-0.8l-2.8,0.4
	c-0.5,0.1-0.7,0.2-0.7,0.8v23c0,0.6,0.3,0.8,0.8,0.8h2.7c0.5,0,0.8-0.3,0.8-0.9V138L683.9,138z M674.1,136.8c-3.5,0-5.4,1.8-5.9,4.7
	c-0.1,0.8-0.2,1.7-0.2,2.8v0.9h-2c-0.5,0-0.7,0.3-0.7,0.7v1.3c0,0.7,0.1,0.9,0.7,0.9h1.9v13.2c0,0.6,0.2,0.9,0.8,0.9h2.5
	c0.7,0,0.9-0.4,0.9-1v-13.1h3.9c0.4,0,0.7-0.2,0.7-0.7v-1.7c0-0.5-0.3-0.6-0.7-0.6h-3.9v-1.6c0-2,0.5-3.4,2.6-3.4
	c0.8,0,1.7,0.2,2.4,0.5c0.1,0,0.2,0.1,0.4,0.1c0.3,0,0.4-0.2,0.5-0.5l0.2-1.5c0.1-0.5,0.2-1-0.4-1.3
	C676.8,137,675.3,136.8,674.1,136.8L674.1,136.8z M655.3,157.3c0-2.3-1.5-3.7-3.3-4.5l-3.2-1.3c-1.3-0.5-1.7-1-1.7-1.8
	c0-0.8,0.7-1.6,2.2-1.6c1.1,0,2.6,0.4,3.8,0.8c0.1,0,0.2,0.1,0.4,0.1c0.2,0,0.4-0.1,0.5-0.4l0.6-1.9c0-0.1,0.1-0.2,0.1-0.4
	c0-0.2-0.1-0.4-0.4-0.5c-1.8-0.8-3.4-1.1-5.1-1.1c-3.1,0-6.3,1.6-6.3,5c0,2.4,1.6,3.9,3.6,4.7l2.8,1.1c1.4,0.6,2.1,1.1,2.1,2.1
	c0,1.2-1.1,1.9-2.6,1.9c-1.2,0-2.9-0.5-4.4-1.1c-0.1-0.1-0.2-0.1-0.4-0.1c-0.2,0-0.4,0.1-0.5,0.5l-0.6,1.8c0,0.1-0.1,0.2-0.1,0.3
	c0,0.2,0.1,0.4,0.4,0.6c1.6,0.7,3.6,1.2,5.4,1.2C652.1,162.7,655.3,161,655.3,157.3L655.3,157.3z M640.9,157.3
	c0-2.3-1.5-3.7-3.3-4.5l-3.2-1.3c-1.3-0.5-1.7-1-1.7-1.8c0-0.8,0.7-1.6,2.2-1.6c1.1,0,2.6,0.4,3.8,0.8c0.1,0,0.2,0.1,0.4,0.1
	c0.2,0,0.4-0.1,0.5-0.4l0.6-1.9c0-0.1,0.1-0.2,0.1-0.4c0-0.2-0.1-0.4-0.4-0.5c-1.8-0.8-3.4-1.1-5.1-1.1c-3.1,0-6.3,1.6-6.3,5
	c0,2.4,1.6,3.9,3.6,4.7l2.8,1.1c1.4,0.6,2.1,1.1,2.1,2.1c0,1.2-1.1,1.9-2.6,1.9c-1.2,0-2.9-0.5-4.4-1.1c-0.1-0.1-0.2-0.1-0.4-0.1
	c-0.2,0-0.4,0.1-0.5,0.5l-0.6,1.8c0,0.1-0.1,0.2-0.1,0.3c0,0.2,0.1,0.4,0.4,0.6c1.6,0.7,3.6,1.2,5.4,1.2
	C637.7,162.7,640.9,161,640.9,157.3L640.9,157.3z M615,152c0.3-2.1,1.6-3.9,3.9-3.9c2.1,0,3.2,1.7,3.3,3.5c0,0.1,0,0.3,0,0.4H615
	L615,152z M620,159.3c-2.8,0-4.7-1.9-5-4.6h10.3c0.9,0,1.2-0.2,1.2-1v-0.5c0-2.4-0.5-4.6-2.1-6.3c-1.2-1.3-3-2.1-5.1-2.1
	c-5.2,0-8.7,3.7-8.7,8.9c0,5.5,3.3,9,8.8,9c1.8,0,4.2-0.4,5.9-1.1c0.4-0.2,0.6-0.4,0.6-0.6c0-0.1,0-0.2-0.1-0.4l-0.5-1.8
	c-0.1-0.5-0.5-0.5-0.9-0.3C622.9,159,621.4,159.3,620,159.3L620,159.3z M607.1,151.1c0-3.8-1.6-6.3-5.5-6.3c-2,0-4.1,0.7-5.7,2
	l0-0.9c0-0.5-0.4-0.7-0.8-0.7h-2.3c-0.6,0-0.9,0.3-0.9,0.9v15.3c0,0.6,0.3,0.8,0.8,0.8h2.6c0.6,0,0.8-0.3,0.8-0.9v-11.2
	c1.1-0.9,2.8-1.7,4.1-1.7c2.1,0,2.7,1.4,2.7,3.3v9.5c0,0.6,0.2,0.9,0.8,0.9h2.5c0.6,0,0.8-0.3,0.8-0.9V151.1L607.1,151.1z
	 M587.2,146.1c0-0.6-0.3-0.8-0.9-0.8h-2.5c-0.6,0-0.9,0.2-0.9,0.8v15.3c0,0.6,0.3,0.9,0.9,0.9h2.5c0.6,0,0.9-0.2,0.9-0.9V146.1
	L587.2,146.1z M587.4,140.8c0-1.4-1.2-2.2-2.3-2.2c-1.2,0-2.4,0.8-2.4,2.2c0,1.4,1.2,2.2,2.4,2.2C586.2,143,587.4,142.2,587.4,140.8
	L587.4,140.8z M579.6,157.3c0-2.3-1.5-3.7-3.3-4.5l-3.2-1.3c-1.3-0.5-1.7-1-1.7-1.8c0-0.8,0.7-1.6,2.2-1.6c1.1,0,2.6,0.4,3.8,0.8
	c0.1,0,0.2,0.1,0.4,0.1c0.2,0,0.4-0.1,0.5-0.4l0.6-1.9c0-0.1,0.1-0.2,0.1-0.4c0-0.2-0.1-0.4-0.4-0.5c-1.8-0.8-3.4-1.1-5.1-1.1
	c-3.1,0-6.3,1.6-6.3,5c0,2.4,1.6,3.9,3.6,4.7l2.8,1.1c1.4,0.6,2.1,1.1,2.1,2.1c0,1.2-1.1,1.9-2.6,1.9c-1.2,0-2.9-0.5-4.4-1.1
	c-0.1-0.1-0.2-0.1-0.4-0.1c-0.2,0-0.4,0.1-0.5,0.5l-0.6,1.8c0,0.1-0.1,0.2-0.1,0.3c0,0.2,0.1,0.4,0.4,0.6c1.6,0.7,3.6,1.2,5.4,1.2
	C576.4,162.7,579.6,161,579.6,157.3L579.6,157.3z M563.9,146.1c0-0.6-0.3-0.8-0.9-0.8h-2.5c-0.6,0-0.9,0.2-0.9,0.8v11.2
	c-1.1,0.9-2.7,1.7-4.1,1.7c-2.1,0-2.6-1.3-2.6-3.3v-9.6c0-0.6-0.3-0.8-0.9-0.8h-2.5c-0.6,0-0.9,0.2-0.9,0.8v10.4
	c0,3.8,1.6,6.3,5.5,6.3c2,0,4-0.7,5.6-2l0,0.9c0,0.5,0.4,0.7,0.8,0.7h2.2c0.7,0,0.9-0.2,0.9-1V146.1L563.9,146.1z M541,153.8
	c0,2.7-0.9,5.4-4,5.4c-1.3,0-2.6-0.8-3.4-1.7V150c0.9-0.9,2.3-1.6,3.6-1.6C540.1,148.4,541,151,541,153.8L541,153.8z M545.3,153.8
	c0-2.9-0.8-5.7-2.7-7.3c-1.1-1-2.6-1.6-4.5-1.6c-1.8,0-3.5,0.7-4.6,1.7v-8.6c0-0.6-0.2-0.7-0.6-0.7l-2.9,0.4
	c-0.6,0.1-0.7,0.4-0.7,0.9v22.9c0,0.6,0.2,0.9,0.8,0.9h2.1c0.5,0,0.7-0.1,0.8-0.4l0.1-1.2c1,1.1,2.9,2,4.5,2
	C542.9,162.7,545.3,158.7,545.3,153.8L545.3,153.8z M512.2,157.2c-0.7,0.9-2.2,1.7-3.6,1.7c-0.9,0-1.9-0.3-2.5-0.9
	c-1.1-1-1.4-2.7-1.4-4.2c0-1.6,0.4-3.4,1.5-4.4c0.6-0.6,1.5-1,2.6-1c1.3,0,2.7,0.8,3.4,1.7V157.2L512.2,157.2z M516.4,146.1
	c0-0.6-0.2-0.8-0.8-0.8h-2.3c-0.5,0-0.8,0.2-0.8,0.6l-0.1,0.9c-0.4-0.6-1.1-1.1-1.8-1.4c-0.8-0.4-1.7-0.6-2.5-0.6
	c-5.1,0-7.8,4.4-7.8,9.1c0,2.5,0.7,4.8,2.2,6.3c1.2,1.3,3,2,5.2,2c1.5,0,3.5-0.8,4.6-1.8v1.4c0,2.8-0.7,4.7-4.2,4.7
	c-1.2,0-2.7-0.4-3.9-0.9c-0.2-0.1-0.4-0.1-0.5-0.1c-0.2,0-0.4,0.2-0.5,0.6l-0.5,1.6c0,0.1-0.1,0.3-0.1,0.5c0,0.3,0.2,0.5,0.6,0.7
	c1.7,0.7,3.5,1.1,5.2,1.1c5.9,0,8.3-3.2,8.3-8.9V146.1L516.4,146.1z M496.8,151.1c0-3.8-1.6-6.3-5.5-6.3c-2,0-4.1,0.7-5.7,2l0-0.9
	c0-0.5-0.4-0.7-0.8-0.7h-2.3c-0.6,0-0.9,0.3-0.9,0.9v15.3c0,0.6,0.3,0.8,0.8,0.8h2.6c0.6,0,0.8-0.3,0.8-0.9v-11.2
	c1.1-0.9,2.8-1.7,4.1-1.7c2.1,0,2.7,1.4,2.7,3.3v9.5c0,0.6,0.2,0.9,0.8,0.9h2.5c0.6,0,0.8-0.3,0.8-0.9V151.1L496.8,151.1z
	 M476.9,146.1c0-0.6-0.3-0.8-0.9-0.8h-2.5c-0.6,0-0.9,0.2-0.9,0.8v15.3c0,0.6,0.3,0.9,0.9,0.9h2.5c0.6,0,0.9-0.2,0.9-0.9V146.1
	L476.9,146.1z M477.2,140.8c0-1.4-1.2-2.2-2.3-2.2c-1.2,0-2.4,0.8-2.4,2.2c0,1.4,1.2,2.2,2.4,2.2S477.2,142.2,477.2,140.8
	L477.2,140.8z M469.6,161.9c0-0.2-0.1-0.5-0.2-0.7l-5.7-8.9l5-6.3c0.1-0.1,0.1-0.3,0.1-0.4c0-0.2-0.2-0.4-0.5-0.4h-3.1
	c-0.5,0-0.7,0.1-0.9,0.5l-4.6,6.3h-0.1V138c0-0.6-0.3-0.8-0.7-0.8l-2.8,0.4c-0.5,0.1-0.7,0.3-0.7,0.8v23c0,0.5,0.3,0.8,0.8,0.8h2.6
	c0.6,0,0.8-0.3,0.8-0.9v-6.9l0.4-0.4l4.5,7.4c0.4,0.6,0.8,0.7,1.4,0.7h3C469.3,162.3,469.6,162.2,469.6,161.9L469.6,161.9z
	 M446.6,156.9c-0.5,1.1-2,2.4-3.7,2.4c-2.6,0-3.7-2.5-3.7-5.4c0-3.7,1.8-5.5,4-5.5c1.3,0,2.8,0.8,3.5,1.8V156.9L446.6,156.9z
	 M452.4,160c0-0.5-0.2-0.6-0.6-0.6h-0.3c-0.2,0-0.3,0-0.4-0.1c-0.1-0.2-0.2-0.5-0.2-1v-12.2c0-0.5-0.3-0.8-0.7-0.8h-2.5
	c-0.4,0-0.7,0.2-0.7,0.6l-0.1,0.9c-0.9-1.2-2.6-2-4.5-2c-3.9,0-7.6,3.2-7.6,9.3c0,4.6,2.2,8.6,7.2,8.6c1.9,0,4.2-1.2,5.1-2.5h0.1
	c0.2,1.2,1.1,2.1,2.9,2.1h1.7c0.4,0,0.7-0.2,0.7-0.7V160L452.4,160z M430.1,138.8c0-0.6-0.2-0.8-0.8-0.8h-2.1
	c-0.6,0-0.9,0.2-1.1,0.8l-7.4,17.3h-0.1l-8.1-17.3c-0.2-0.5-0.5-0.8-1.2-0.8h-2.1c-0.6,0-0.8,0.2-0.8,0.9l-0.9,22.4
	c0,0.7,0.2,0.9,0.9,0.9h2.4c0.6,0,0.9-0.1,0.9-0.9l0.3-14.5h0.1l6.6,14.7c0.2,0.6,0.6,0.7,1.1,0.7h1.2c0.4,0,0.7-0.1,0.9-0.6l6-14.8
	h0.1l0.5,14.2c0,0.8,0.2,1.2,0.9,1.2h2.8c0.7,0,0.8-0.4,0.8-0.9L430.1,138.8L430.1,138.8z"/>
</svg>
